<?xml version="1.0" encoding="UTF-8" standalone="no"?>
<!DOCTYPE svg PUBLIC "-//W3C//DTD SVG 1.1//EN"
 "http://www.w3.org/Graphics/SVG/1.1/DTD/svg11.dtd">
<!-- Generated by graphviz version 2.49.3 (20211104.1129)
 -->
<!-- Title: snakemake_dag Pages: 1 -->
<svg width="2014pt" height="404pt"
 viewBox="0.00 0.00 2013.50 404.00" xmlns="http://www.w3.org/2000/svg" xmlns:xlink="http://www.w3.org/1999/xlink">
<g id="graph0" class="graph" transform="scale(1 1) rotate(0) translate(4 400)">
<title>snakemake_dag</title>
<polygon fill="white" stroke="transparent" points="-4,4 -4,-400 2009.5,-400 2009.5,4 -4,4"/>
<!-- 0 -->
<g id="node1" class="node">
<title>0</title>
<path fill="none" stroke="#d8ac56" stroke-width="2" d="M985,-36C985,-36 955,-36 955,-36 949,-36 943,-30 943,-24 943,-24 943,-12 943,-12 943,-6 949,0 955,0 955,0 985,0 985,0 991,0 997,-6 997,-12 997,-12 997,-24 997,-24 997,-30 991,-36 985,-36"/>
<text text-anchor="middle" x="970" y="-15.5" font-family="sans" font-size="10.00">all</text>
</g>
<!-- 1 -->
<g id="node2" class="node">
<title>1</title>
<path fill="none" stroke="#59d856" stroke-width="2" d="M292,-108C292,-108 12,-108 12,-108 6,-108 0,-102 0,-96 0,-96 0,-84 0,-84 0,-78 6,-72 12,-72 12,-72 292,-72 292,-72 298,-72 304,-78 304,-84 304,-84 304,-96 304,-96 304,-102 298,-108 292,-108"/>
<text text-anchor="middle" x="152" y="-93" font-family="sans" font-size="10.00">variant_caller</text>
<text text-anchor="middle" x="152" y="-82" font-family="sans" font-size="10.00">identification: SRR7890851_bwa&#45;SRR7890850_bwa_mutect</text>
</g>
<!-- 1&#45;&gt;0 -->
<g id="edge1" class="edge">
<title>1&#45;&gt;0</title>
<path fill="none" stroke="grey" stroke-width="2" d="M304.1,-72.84C307.09,-72.55 310.06,-72.27 313,-72 548.53,-50.07 832.08,-29 932.52,-21.7"/>
<polygon fill="grey" stroke="grey" stroke-width="2" points="933.03,-25.17 942.76,-20.96 932.53,-18.19 933.03,-25.17"/>
</g>
<!-- 2 -->
<g id="node3" class="node">
<title>2</title>
<path fill="none" stroke="#d85656" stroke-width="2" d="M510,-180C510,-180 448,-180 448,-180 442,-180 436,-174 436,-168 436,-168 436,-156 436,-156 436,-150 442,-144 448,-144 448,-144 510,-144 510,-144 516,-144 522,-150 522,-156 522,-156 522,-168 522,-168 522,-174 516,-180 510,-180"/>
<text text-anchor="middle" x="479" y="-159.5" font-family="sans" font-size="10.00">gatk_base_cal</text>
</g>
<!-- 2&#45;&gt;1 -->
<g id="edge7" class="edge">
<title>2&#45;&gt;1</title>
<path fill="none" stroke="grey" stroke-width="2" d="M435.91,-151.78C386.69,-141.24 304.8,-123.71 241.58,-110.18"/>
<polygon fill="grey" stroke="grey" stroke-width="2" points="242.11,-106.71 231.6,-108.04 240.65,-113.56 242.11,-106.71"/>
</g>
<!-- 10 -->
<g id="node11" class="node">
<title>10</title>
<path fill="none" stroke="#59d856" stroke-width="2" d="M618,-108C618,-108 334,-108 334,-108 328,-108 322,-102 322,-96 322,-96 322,-84 322,-84 322,-78 328,-72 334,-72 334,-72 618,-72 618,-72 624,-72 630,-78 630,-84 630,-84 630,-96 630,-96 630,-102 624,-108 618,-108"/>
<text text-anchor="middle" x="476" y="-93" font-family="sans" font-size="10.00">variant_caller</text>
<text text-anchor="middle" x="476" y="-82" font-family="sans" font-size="10.00">identification: SRR7890851_bwa&#45;SRR7890850_bwa_varscan</text>
</g>
<!-- 2&#45;&gt;10 -->
<g id="edge15" class="edge">
<title>2&#45;&gt;10</title>
<path fill="none" stroke="grey" stroke-width="2" d="M478.26,-143.7C477.93,-135.98 477.53,-126.71 477.16,-118.11"/>
<polygon fill="grey" stroke="grey" stroke-width="2" points="480.66,-117.95 476.73,-108.1 473.66,-118.25 480.66,-117.95"/>
</g>
<!-- 11 -->
<g id="node12" class="node">
<title>11</title>
<path fill="none" stroke="#59d856" stroke-width="2" d="M944,-108C944,-108 660,-108 660,-108 654,-108 648,-102 648,-96 648,-96 648,-84 648,-84 648,-78 654,-72 660,-72 660,-72 944,-72 944,-72 950,-72 956,-78 956,-84 956,-84 956,-96 956,-96 956,-102 950,-108 944,-108"/>
<text text-anchor="middle" x="802" y="-93" font-family="sans" font-size="10.00">variant_caller</text>
<text text-anchor="middle" x="802" y="-82" font-family="sans" font-size="10.00">identification: SRR7890851_bwa&#45;SRR7890850_bwa_octopus</text>
</g>
<!-- 2&#45;&gt;11 -->
<g id="edge17" class="edge">
<title>2&#45;&gt;11</title>
<path fill="none" stroke="grey" stroke-width="2" d="M522.23,-151.63C570.93,-141.08 651.41,-123.63 713.58,-110.16"/>
<polygon fill="grey" stroke="grey" stroke-width="2" points="714.36,-113.57 723.4,-108.04 712.88,-106.73 714.36,-113.57"/>
</g>
<!-- 3 -->
<g id="node4" class="node">
<title>3</title>
<path fill="none" stroke="#afd856" stroke-width="2" stroke-dasharray="5,2" d="M623.5,-252C623.5,-252 582.5,-252 582.5,-252 576.5,-252 570.5,-246 570.5,-240 570.5,-240 570.5,-228 570.5,-228 570.5,-222 576.5,-216 582.5,-216 582.5,-216 623.5,-216 623.5,-216 629.5,-216 635.5,-222 635.5,-228 635.5,-228 635.5,-240 635.5,-240 635.5,-246 629.5,-252 623.5,-252"/>
<text text-anchor="middle" x="603" y="-231.5" font-family="sans" font-size="10.00">mark_dup</text>
</g>
<!-- 3&#45;&gt;2 -->
<g id="edge9" class="edge">
<title>3&#45;&gt;2</title>
<path fill="none" stroke="grey" stroke-width="2" d="M572.67,-215.88C556.3,-206.64 535.92,-195.13 518.35,-185.21"/>
<polygon fill="grey" stroke="grey" stroke-width="2" points="519.88,-182.06 509.45,-180.19 516.44,-188.15 519.88,-182.06"/>
</g>
<!-- 4 -->
<g id="node5" class="node">
<title>4</title>
<path fill="none" stroke="#56d8a9" stroke-width="2" stroke-dasharray="5,2" d="M763.5,-324C763.5,-324 614.5,-324 614.5,-324 608.5,-324 602.5,-318 602.5,-312 602.5,-312 602.5,-300 602.5,-300 602.5,-294 608.5,-288 614.5,-288 614.5,-288 763.5,-288 763.5,-288 769.5,-288 775.5,-294 775.5,-300 775.5,-300 775.5,-312 775.5,-312 775.5,-318 769.5,-324 763.5,-324"/>
<text text-anchor="middle" x="689" y="-309" font-family="sans" font-size="10.00">mapper</text>
<text text-anchor="middle" x="689" y="-298" font-family="sans" font-size="10.00">identification: SRR7890851_bwa</text>
</g>
<!-- 4&#45;&gt;3 -->
<g id="edge10" class="edge">
<title>4&#45;&gt;3</title>
<path fill="none" stroke="grey" stroke-width="2" d="M667.74,-287.7C656.91,-278.88 643.58,-268.03 631.84,-258.47"/>
<polygon fill="grey" stroke="grey" stroke-width="2" points="633.98,-255.7 624.01,-252.1 629.56,-261.13 633.98,-255.7"/>
</g>
<!-- 5 -->
<g id="node6" class="node">
<title>5</title>
<path fill="none" stroke="#56a9d8" stroke-width="2" stroke-dasharray="5,2" d="M893,-396C893,-396 769,-396 769,-396 763,-396 757,-390 757,-384 757,-384 757,-372 757,-372 757,-366 763,-360 769,-360 769,-360 893,-360 893,-360 899,-360 905,-366 905,-372 905,-372 905,-384 905,-384 905,-390 899,-396 893,-396"/>
<text text-anchor="middle" x="831" y="-381" font-family="sans" font-size="10.00">fastp_trim</text>
<text text-anchor="middle" x="831" y="-370" font-family="sans" font-size="10.00">identification: SRR7890851</text>
</g>
<!-- 5&#45;&gt;4 -->
<g id="edge11" class="edge">
<title>5&#45;&gt;4</title>
<path fill="none" stroke="grey" stroke-width="2" d="M796.26,-359.88C777.18,-350.47 753.32,-338.71 732.95,-328.67"/>
<polygon fill="grey" stroke="grey" stroke-width="2" points="734.39,-325.47 723.87,-324.19 731.29,-331.75 734.39,-325.47"/>
</g>
<!-- 15 -->
<g id="node16" class="node">
<title>15</title>
<path fill="none" stroke="#56d8a9" stroke-width="2" stroke-dasharray="5,2" d="M1011,-324C1011,-324 849,-324 849,-324 843,-324 837,-318 837,-312 837,-312 837,-300 837,-300 837,-294 843,-288 849,-288 849,-288 1011,-288 1011,-288 1017,-288 1023,-294 1023,-300 1023,-300 1023,-312 1023,-312 1023,-318 1017,-324 1011,-324"/>
<text text-anchor="middle" x="930" y="-309" font-family="sans" font-size="10.00">mapper</text>
<text text-anchor="middle" x="930" y="-298" font-family="sans" font-size="10.00">identification: SRR7890851_bowtie</text>
</g>
<!-- 5&#45;&gt;15 -->
<g id="edge23" class="edge">
<title>5&#45;&gt;15</title>
<path fill="none" stroke="grey" stroke-width="2" d="M855.22,-359.88C867.92,-350.89 883.66,-339.76 897.42,-330.03"/>
<polygon fill="grey" stroke="grey" stroke-width="2" points="899.54,-332.82 905.69,-324.19 895.5,-327.11 899.54,-332.82"/>
</g>
<!-- 6 -->
<g id="node7" class="node">
<title>6</title>
<path fill="none" stroke="#d85656" stroke-width="2" d="M722,-180C722,-180 660,-180 660,-180 654,-180 648,-174 648,-168 648,-168 648,-156 648,-156 648,-150 654,-144 660,-144 660,-144 722,-144 722,-144 728,-144 734,-150 734,-156 734,-156 734,-168 734,-168 734,-174 728,-180 722,-180"/>
<text text-anchor="middle" x="691" y="-159.5" font-family="sans" font-size="10.00">gatk_base_cal</text>
</g>
<!-- 6&#45;&gt;1 -->
<g id="edge8" class="edge">
<title>6&#45;&gt;1</title>
<path fill="none" stroke="grey" stroke-width="2" d="M647.8,-155.39C571.83,-145.52 411.17,-124.66 293.24,-109.34"/>
<polygon fill="grey" stroke="grey" stroke-width="2" points="293.41,-105.84 283.04,-108.02 292.5,-112.78 293.41,-105.84"/>
</g>
<!-- 6&#45;&gt;10 -->
<g id="edge16" class="edge">
<title>6&#45;&gt;10</title>
<path fill="none" stroke="grey" stroke-width="2" d="M647.75,-146.92C616.25,-136.66 573.14,-122.63 537.98,-111.18"/>
<polygon fill="grey" stroke="grey" stroke-width="2" points="538.89,-107.79 528.29,-108.03 536.72,-114.45 538.89,-107.79"/>
</g>
<!-- 6&#45;&gt;11 -->
<g id="edge18" class="edge">
<title>6&#45;&gt;11</title>
<path fill="none" stroke="grey" stroke-width="2" d="M718.15,-143.88C732.53,-134.81 750.38,-123.55 765.91,-113.76"/>
<polygon fill="grey" stroke="grey" stroke-width="2" points="768.15,-116.48 774.74,-108.19 764.42,-110.56 768.15,-116.48"/>
</g>
<!-- 7 -->
<g id="node8" class="node">
<title>7</title>
<path fill="none" stroke="#afd856" stroke-width="2" d="M1102.5,-252C1102.5,-252 1061.5,-252 1061.5,-252 1055.5,-252 1049.5,-246 1049.5,-240 1049.5,-240 1049.5,-228 1049.5,-228 1049.5,-222 1055.5,-216 1061.5,-216 1061.5,-216 1102.5,-216 1102.5,-216 1108.5,-216 1114.5,-222 1114.5,-228 1114.5,-228 1114.5,-240 1114.5,-240 1114.5,-246 1108.5,-252 1102.5,-252"/>
<text text-anchor="middle" x="1082" y="-231.5" font-family="sans" font-size="10.00">mark_dup</text>
</g>
<!-- 7&#45;&gt;6 -->
<g id="edge12" class="edge">
<title>7&#45;&gt;6</title>
<path fill="none" stroke="grey" stroke-width="2" d="M1049.16,-225.25C1035.8,-222.21 1020.2,-218.78 1006,-216 914.37,-198.06 807,-180.79 744.24,-171.07"/>
<polygon fill="grey" stroke="grey" stroke-width="2" points="744.6,-167.58 734.19,-169.52 743.54,-174.5 744.6,-167.58"/>
</g>
<!-- 8 -->
<g id="node9" class="node">
<title>8</title>
<path fill="none" stroke="#56d8a9" stroke-width="2" d="M1224.5,-324C1224.5,-324 1075.5,-324 1075.5,-324 1069.5,-324 1063.5,-318 1063.5,-312 1063.5,-312 1063.5,-300 1063.5,-300 1063.5,-294 1069.5,-288 1075.5,-288 1075.5,-288 1224.5,-288 1224.5,-288 1230.5,-288 1236.5,-294 1236.5,-300 1236.5,-300 1236.5,-312 1236.5,-312 1236.5,-318 1230.5,-324 1224.5,-324"/>
<text text-anchor="middle" x="1150" y="-309" font-family="sans" font-size="10.00">mapper</text>
<text text-anchor="middle" x="1150" y="-298" font-family="sans" font-size="10.00">identification: SRR7890850_bwa</text>
</g>
<!-- 8&#45;&gt;7 -->
<g id="edge13" class="edge">
<title>8&#45;&gt;7</title>
<path fill="none" stroke="grey" stroke-width="2" d="M1133.19,-287.7C1124.87,-279.14 1114.69,-268.66 1105.61,-259.3"/>
<polygon fill="grey" stroke="grey" stroke-width="2" points="1108.09,-256.84 1098.62,-252.1 1103.07,-261.72 1108.09,-256.84"/>
</g>
<!-- 9 -->
<g id="node10" class="node">
<title>9</title>
<path fill="none" stroke="#56a9d8" stroke-width="2" d="M1316,-396C1316,-396 1192,-396 1192,-396 1186,-396 1180,-390 1180,-384 1180,-384 1180,-372 1180,-372 1180,-366 1186,-360 1192,-360 1192,-360 1316,-360 1316,-360 1322,-360 1328,-366 1328,-372 1328,-372 1328,-384 1328,-384 1328,-390 1322,-396 1316,-396"/>
<text text-anchor="middle" x="1254" y="-381" font-family="sans" font-size="10.00">fastp_trim</text>
<text text-anchor="middle" x="1254" y="-370" font-family="sans" font-size="10.00">identification: SRR7890850</text>
</g>
<!-- 9&#45;&gt;8 -->
<g id="edge14" class="edge">
<title>9&#45;&gt;8</title>
<path fill="none" stroke="grey" stroke-width="2" d="M1228.56,-359.88C1215.21,-350.89 1198.68,-339.76 1184.22,-330.03"/>
<polygon fill="grey" stroke="grey" stroke-width="2" points="1185.79,-326.87 1175.54,-324.19 1181.88,-332.68 1185.79,-326.87"/>
</g>
<!-- 18 -->
<g id="node19" class="node">
<title>18</title>
<path fill="none" stroke="#56d8a9" stroke-width="2" d="M1440,-324C1440,-324 1278,-324 1278,-324 1272,-324 1266,-318 1266,-312 1266,-312 1266,-300 1266,-300 1266,-294 1272,-288 1278,-288 1278,-288 1440,-288 1440,-288 1446,-288 1452,-294 1452,-300 1452,-300 1452,-312 1452,-312 1452,-318 1446,-324 1440,-324"/>
<text text-anchor="middle" x="1359" y="-309" font-family="sans" font-size="10.00">mapper</text>
<text text-anchor="middle" x="1359" y="-298" font-family="sans" font-size="10.00">identification: SRR7890850_bowtie</text>
</g>
<!-- 9&#45;&gt;18 -->
<g id="edge26" class="edge">
<title>9&#45;&gt;18</title>
<path fill="none" stroke="grey" stroke-width="2" d="M1279.69,-359.88C1293.29,-350.81 1310.17,-339.55 1324.86,-329.76"/>
<polygon fill="grey" stroke="grey" stroke-width="2" points="1326.84,-332.65 1333.22,-324.19 1322.95,-326.82 1326.84,-332.65"/>
</g>
<!-- 10&#45;&gt;0 -->
<g id="edge2" class="edge">
<title>10&#45;&gt;0</title>
<path fill="none" stroke="grey" stroke-width="2" d="M596.21,-71.97C705.96,-56.41 861.52,-34.37 932.31,-24.34"/>
<polygon fill="grey" stroke="grey" stroke-width="2" points="933.11,-27.76 942.52,-22.89 932.13,-20.83 933.11,-27.76"/>
</g>
<!-- 11&#45;&gt;0 -->
<g id="edge3" class="edge">
<title>11&#45;&gt;0</title>
<path fill="none" stroke="grey" stroke-width="2" d="M843.1,-71.88C870.78,-60.34 906.97,-45.26 933.61,-34.16"/>
<polygon fill="grey" stroke="grey" stroke-width="2" points="935.08,-37.34 942.96,-30.27 932.38,-30.88 935.08,-37.34"/>
</g>
<!-- 12 -->
<g id="node13" class="node">
<title>12</title>
<path fill="none" stroke="#59d856" stroke-width="2" d="M1291.5,-108C1291.5,-108 986.5,-108 986.5,-108 980.5,-108 974.5,-102 974.5,-96 974.5,-96 974.5,-84 974.5,-84 974.5,-78 980.5,-72 986.5,-72 986.5,-72 1291.5,-72 1291.5,-72 1297.5,-72 1303.5,-78 1303.5,-84 1303.5,-84 1303.5,-96 1303.5,-96 1303.5,-102 1297.5,-108 1291.5,-108"/>
<text text-anchor="middle" x="1139" y="-93" font-family="sans" font-size="10.00">variant_caller</text>
<text text-anchor="middle" x="1139" y="-82" font-family="sans" font-size="10.00">identification: SRR7890851_bowtie&#45;SRR7890850_bowtie_mutect</text>
</g>
<!-- 12&#45;&gt;0 -->
<g id="edge4" class="edge">
<title>12&#45;&gt;0</title>
<path fill="none" stroke="grey" stroke-width="2" d="M1097.66,-71.88C1069.81,-60.34 1033.41,-45.26 1006.61,-34.16"/>
<polygon fill="grey" stroke="grey" stroke-width="2" points="1007.78,-30.86 997.2,-30.27 1005.1,-37.33 1007.78,-30.86"/>
</g>
<!-- 13 -->
<g id="node14" class="node">
<title>13</title>
<path fill="none" stroke="#d85656" stroke-width="2" d="M1231,-180C1231,-180 1169,-180 1169,-180 1163,-180 1157,-174 1157,-168 1157,-168 1157,-156 1157,-156 1157,-150 1163,-144 1169,-144 1169,-144 1231,-144 1231,-144 1237,-144 1243,-150 1243,-156 1243,-156 1243,-168 1243,-168 1243,-174 1237,-180 1231,-180"/>
<text text-anchor="middle" x="1200" y="-159.5" font-family="sans" font-size="10.00">gatk_base_cal</text>
</g>
<!-- 13&#45;&gt;12 -->
<g id="edge19" class="edge">
<title>13&#45;&gt;12</title>
<path fill="none" stroke="grey" stroke-width="2" d="M1184.92,-143.7C1177.61,-135.3 1168.69,-125.07 1160.66,-115.86"/>
<polygon fill="grey" stroke="grey" stroke-width="2" points="1163.11,-113.34 1153.91,-108.1 1157.84,-117.94 1163.11,-113.34"/>
</g>
<!-- 19 -->
<g id="node20" class="node">
<title>19</title>
<path fill="none" stroke="#59d856" stroke-width="2" d="M1642.5,-108C1642.5,-108 1333.5,-108 1333.5,-108 1327.5,-108 1321.5,-102 1321.5,-96 1321.5,-96 1321.5,-84 1321.5,-84 1321.5,-78 1327.5,-72 1333.5,-72 1333.5,-72 1642.5,-72 1642.5,-72 1648.5,-72 1654.5,-78 1654.5,-84 1654.5,-84 1654.5,-96 1654.5,-96 1654.5,-102 1648.5,-108 1642.5,-108"/>
<text text-anchor="middle" x="1488" y="-93" font-family="sans" font-size="10.00">variant_caller</text>
<text text-anchor="middle" x="1488" y="-82" font-family="sans" font-size="10.00">identification: SRR7890851_bowtie&#45;SRR7890850_bowtie_varscan</text>
</g>
<!-- 13&#45;&gt;19 -->
<g id="edge27" class="edge">
<title>13&#45;&gt;19</title>
<path fill="none" stroke="grey" stroke-width="2" d="M1243.12,-150.52C1286.62,-139.95 1354.81,-123.37 1408.2,-110.4"/>
<polygon fill="grey" stroke="grey" stroke-width="2" points="1409.1,-113.78 1417.99,-108.02 1407.45,-106.98 1409.1,-113.78"/>
</g>
<!-- 20 -->
<g id="node21" class="node">
<title>20</title>
<path fill="none" stroke="#59d856" stroke-width="2" d="M1993.5,-108C1993.5,-108 1684.5,-108 1684.5,-108 1678.5,-108 1672.5,-102 1672.5,-96 1672.5,-96 1672.5,-84 1672.5,-84 1672.5,-78 1678.5,-72 1684.5,-72 1684.5,-72 1993.5,-72 1993.5,-72 1999.5,-72 2005.5,-78 2005.5,-84 2005.5,-84 2005.5,-96 2005.5,-96 2005.5,-102 1999.5,-108 1993.5,-108"/>
<text text-anchor="middle" x="1839" y="-93" font-family="sans" font-size="10.00">variant_caller</text>
<text text-anchor="middle" x="1839" y="-82" font-family="sans" font-size="10.00">identification: SRR7890851_bowtie&#45;SRR7890850_bowtie_octopus</text>
</g>
<!-- 13&#45;&gt;20 -->
<g id="edge29" class="edge">
<title>13&#45;&gt;20</title>
<path fill="none" stroke="grey" stroke-width="2" d="M1243.42,-156.24C1330.24,-146.73 1529.28,-124.93 1673.42,-109.14"/>
<polygon fill="grey" stroke="grey" stroke-width="2" points="1674.14,-112.58 1683.7,-108.01 1673.37,-105.62 1674.14,-112.58"/>
</g>
<!-- 14 -->
<g id="node15" class="node">
<title>14</title>
<path fill="none" stroke="#afd856" stroke-width="2" stroke-dasharray="5,2" d="M984.5,-252C984.5,-252 943.5,-252 943.5,-252 937.5,-252 931.5,-246 931.5,-240 931.5,-240 931.5,-228 931.5,-228 931.5,-222 937.5,-216 943.5,-216 943.5,-216 984.5,-216 984.5,-216 990.5,-216 996.5,-222 996.5,-228 996.5,-228 996.5,-240 996.5,-240 996.5,-246 990.5,-252 984.5,-252"/>
<text text-anchor="middle" x="964" y="-231.5" font-family="sans" font-size="10.00">mark_dup</text>
</g>
<!-- 14&#45;&gt;13 -->
<g id="edge21" class="edge">
<title>14&#45;&gt;13</title>
<path fill="none" stroke="grey" stroke-width="2" d="M996.81,-223.27C1035.64,-211.75 1100.79,-192.43 1146.84,-178.77"/>
<polygon fill="grey" stroke="grey" stroke-width="2" points="1148.06,-182.06 1156.65,-175.86 1146.07,-175.35 1148.06,-182.06"/>
</g>
<!-- 15&#45;&gt;14 -->
<g id="edge22" class="edge">
<title>15&#45;&gt;14</title>
<path fill="none" stroke="grey" stroke-width="2" d="M938.4,-287.7C942.27,-279.73 946.95,-270.1 951.24,-261.26"/>
<polygon fill="grey" stroke="grey" stroke-width="2" points="954.47,-262.63 955.69,-252.1 948.17,-259.57 954.47,-262.63"/>
</g>
<!-- 16 -->
<g id="node17" class="node">
<title>16</title>
<path fill="none" stroke="#d85656" stroke-width="2" d="M1457,-180C1457,-180 1395,-180 1395,-180 1389,-180 1383,-174 1383,-168 1383,-168 1383,-156 1383,-156 1383,-150 1389,-144 1395,-144 1395,-144 1457,-144 1457,-144 1463,-144 1469,-150 1469,-156 1469,-156 1469,-168 1469,-168 1469,-174 1463,-180 1457,-180"/>
<text text-anchor="middle" x="1426" y="-159.5" font-family="sans" font-size="10.00">gatk_base_cal</text>
</g>
<!-- 16&#45;&gt;12 -->
<g id="edge20" class="edge">
<title>16&#45;&gt;12</title>
<path fill="none" stroke="grey" stroke-width="2" d="M1382.72,-150.44C1339.38,-139.87 1271.68,-123.36 1218.62,-110.42"/>
<polygon fill="grey" stroke="grey" stroke-width="2" points="1219.43,-107.02 1208.89,-108.05 1217.77,-113.82 1219.43,-107.02"/>
</g>
<!-- 16&#45;&gt;19 -->
<g id="edge28" class="edge">
<title>16&#45;&gt;19</title>
<path fill="none" stroke="grey" stroke-width="2" d="M1441.33,-143.7C1448.76,-135.3 1457.82,-125.07 1465.98,-115.86"/>
<polygon fill="grey" stroke="grey" stroke-width="2" points="1468.84,-117.91 1472.85,-108.1 1463.6,-113.27 1468.84,-117.91"/>
</g>
<!-- 16&#45;&gt;20 -->
<g id="edge30" class="edge">
<title>16&#45;&gt;20</title>
<path fill="none" stroke="grey" stroke-width="2" d="M1469.03,-153.71C1529.94,-143.38 1643.38,-124.16 1728.65,-109.7"/>
<polygon fill="grey" stroke="grey" stroke-width="2" points="1729.37,-113.13 1738.64,-108.01 1728.2,-106.23 1729.37,-113.13"/>
</g>
<!-- 17 -->
<g id="node18" class="node">
<title>17</title>
<path fill="none" stroke="#afd856" stroke-width="2" d="M1441.5,-252C1441.5,-252 1400.5,-252 1400.5,-252 1394.5,-252 1388.5,-246 1388.5,-240 1388.5,-240 1388.5,-228 1388.5,-228 1388.5,-222 1394.5,-216 1400.5,-216 1400.5,-216 1441.5,-216 1441.5,-216 1447.5,-216 1453.5,-222 1453.5,-228 1453.5,-228 1453.5,-240 1453.5,-240 1453.5,-246 1447.5,-252 1441.5,-252"/>
<text text-anchor="middle" x="1421" y="-231.5" font-family="sans" font-size="10.00">mark_dup</text>
</g>
<!-- 17&#45;&gt;16 -->
<g id="edge24" class="edge">
<title>17&#45;&gt;16</title>
<path fill="none" stroke="grey" stroke-width="2" d="M1422.24,-215.7C1422.79,-207.98 1423.45,-198.71 1424.06,-190.11"/>
<polygon fill="grey" stroke="grey" stroke-width="2" points="1427.56,-190.33 1424.78,-180.1 1420.57,-189.83 1427.56,-190.33"/>
</g>
<!-- 18&#45;&gt;17 -->
<g id="edge25" class="edge">
<title>18&#45;&gt;17</title>
<path fill="none" stroke="grey" stroke-width="2" d="M1374.33,-287.7C1381.76,-279.3 1390.82,-269.07 1398.98,-259.86"/>
<polygon fill="grey" stroke="grey" stroke-width="2" points="1401.84,-261.91 1405.85,-252.1 1396.6,-257.27 1401.84,-261.91"/>
</g>
<!-- 19&#45;&gt;0 -->
<g id="edge5" class="edge">
<title>19&#45;&gt;0</title>
<path fill="none" stroke="grey" stroke-width="2" d="M1361.95,-71.97C1245.77,-56.27 1080.64,-33.95 1007.43,-24.06"/>
<polygon fill="grey" stroke="grey" stroke-width="2" points="1007.69,-20.56 997.31,-22.69 1006.75,-27.5 1007.69,-20.56"/>
</g>
<!-- 20&#45;&gt;0 -->
<g id="edge6" class="edge">
<title>20&#45;&gt;0</title>
<path fill="none" stroke="grey" stroke-width="2" d="M1672.28,-72.72C1669.5,-72.48 1666.74,-72.24 1664,-72 1413.18,-50.24 1110.95,-28.8 1007.12,-21.56"/>
<polygon fill="grey" stroke="grey" stroke-width="2" points="1007.35,-18.07 997.13,-20.87 1006.87,-25.06 1007.35,-18.07"/>
</g>
</g>
</svg>
